<?xml version="1.0" encoding="UTF-8" standalone="no"?>
<!-- Created with Inkscape (http://www.inkscape.org/) -->

<svg
   xmlns:dc="http://purl.org/dc/elements/1.1/"
   xmlns:cc="http://creativecommons.org/ns#"
   xmlns:rdf="http://www.w3.org/1999/02/22-rdf-syntax-ns#"
   xmlns:svg="http://www.w3.org/2000/svg"
   xmlns="http://www.w3.org/2000/svg"
   xmlns:sodipodi="http://sodipodi.sourceforge.net/DTD/sodipodi-0.dtd"
   xmlns:inkscape="http://www.inkscape.org/namespaces/inkscape"
   width="120"
   height="120"
   id="svg2"
   version="1.1"
   inkscape:version="0.48.4 r9939"
   sodipodi:docname="tiles.svg"
   inkscape:export-filename="/home/world/tiles.png"
   inkscape:export-xdpi="90"
   inkscape:export-ydpi="90">
  <defs
     id="defs4" />
  <sodipodi:namedview
     id="base"
     pagecolor="#ffffff"
     bordercolor="#666666"
     borderopacity="1.0"
     inkscape:pageopacity="0.0"
     inkscape:pageshadow="2"
     inkscape:zoom="3.959798"
     inkscape:cx="85.575242"
     inkscape:cy="60.7998"
     inkscape:document-units="px"
     inkscape:current-layer="layer2"
     showgrid="false"
     showguides="true"
     inkscape:guide-bbox="true"
     inkscape:window-width="1366"
     inkscape:window-height="709"
     inkscape:window-x="0"
     inkscape:window-y="27"
     inkscape:window-maximized="1">
    <sodipodi:guide
       orientation="0,1"
       position="0,30"
       id="guide3764" />
    <sodipodi:guide
       orientation="0,1"
       position="0,60"
       id="guide3766" />
    <sodipodi:guide
       orientation="0,1"
       position="0,90"
       id="guide3768" />
    <sodipodi:guide
       orientation="1,0"
       position="30,0"
       id="guide3772" />
    <sodipodi:guide
       orientation="1,0"
       position="60,0"
       id="guide3774" />
    <sodipodi:guide
       orientation="1,0"
       position="90,0"
       id="guide3776" />
  </sodipodi:namedview>
  <metadata
     id="metadata7">
    <rdf:RDF>
      <cc:Work
         rdf:about="">
        <dc:format>image/svg+xml</dc:format>
        <dc:type
           rdf:resource="http://purl.org/dc/dcmitype/StillImage" />
        <dc:title></dc:title>
      </cc:Work>
    </rdf:RDF>
  </metadata>
  <g
     inkscape:label="Layer 1"
     inkscape:groupmode="layer"
     id="layer1"
     transform="translate(0,-932.36218)"
     sodipodi:insensitive="true">
    <rect
       style="fill:#ffff00;stroke:#ffff00;stroke-width:1.003021;stroke-miterlimit:4;stroke-dasharray:none"
       id="rect2993"
       width="118.99698"
       height="118.99698"
       x="0.5015105"
       y="932.86371" />
  </g>
  <g
     inkscape:groupmode="layer"
     id="layer2"
     inkscape:label="Слой">
    <rect
       style="fill:#0000ff;stroke:none"
       id="rect3791"
       width="75"
       height="75"
       x="37.5"
       y="7.5"
       ry="18.75" />
    <path
       sodipodi:type="arc"
       style="fill:#ffff00;stroke:none"
       id="path3780"
       sodipodi:cx="60"
       sodipodi:cy="60"
       sodipodi:rx="8.0357141"
       sodipodi:ry="8.0357141"
       d="m 68.035714,60 a 8.0357141,8.0357141 0 1 1 -16.071428,0 8.0357141,8.0357141 0 1 1 16.071428,0 z"
       transform="matrix(0.93333335,0,0,0.93333335,3.999999,3.9999991)" />
    <path
       style="fill:#0000ff;stroke:none"
       d="M 44.644369,112.5 C 40.698644,112.5 37.5,109.14213 37.5,105 c 0,-4.14214 3.198644,-7.5 7.144369,-7.5 l 60.711261,0 c 3.94573,0 7.14437,3.35786 7.14437,7.5 0,4.14213 -3.19864,7.5 -7.14437,7.5 z"
       id="path3782"
       inkscape:connector-curvature="0"
       sodipodi:nodetypes="csccscc" />
    <path
       sodipodi:nodetypes="csccscc"
       inkscape:connector-curvature="0"
       id="path3789"
       d="M 22.5,75.35563 C 22.5,79.301356 19.142136,82.5 15,82.5 10.857864,82.5 7.5,79.301356 7.5,75.35563 l 0,-60.711256 C 7.5,10.698641 10.857864,7.5 15,7.5 c 4.142136,0 7.5,3.198641 7.5,7.144374 z"
       style="fill:#0000ff;stroke:none" />
    <path
       transform="matrix(0.93333335,0,0,0.93333335,33.999999,3.9999991)"
       d="m 68.035714,60 a 8.0357141,8.0357141 0 1 1 -16.071428,0 8.0357141,8.0357141 0 1 1 16.071428,0 z"
       sodipodi:ry="8.0357141"
       sodipodi:rx="8.0357141"
       sodipodi:cy="60"
       sodipodi:cx="60"
       id="path3799"
       style="fill:#ffff00;stroke:none"
       sodipodi:type="arc" />
    <path
       transform="matrix(0.93333335,0,0,0.93333335,3.999999,-26.000001)"
       d="m 68.035714,60 a 8.0357141,8.0357141 0 1 1 -16.071428,0 8.0357141,8.0357141 0 1 1 16.071428,0 z"
       sodipodi:ry="8.0357141"
       sodipodi:rx="8.0357141"
       sodipodi:cy="60"
       sodipodi:cx="60"
       id="path3801"
       style="fill:#ffff00;stroke:none"
       sodipodi:type="arc" />
    <path
       sodipodi:type="arc"
       style="fill:#ffff00;stroke:none"
       id="path3803"
       sodipodi:cx="60"
       sodipodi:cy="60"
       sodipodi:rx="8.0357141"
       sodipodi:ry="8.0357141"
       d="m 68.035714,60 a 8.0357141,8.0357141 0 1 1 -16.071428,0 8.0357141,8.0357141 0 1 1 16.071428,0 z"
       transform="matrix(0.93333335,0,0,0.93333335,33.999999,-26.000001)" />
  </g>
</svg>
