<?xml version="1.0" encoding="UTF-8" standalone="no"?>
<!-- Created with Inkscape (http://www.inkscape.org/) -->

<svg
   width="200mm"
   height="320mm"
   viewBox="0 0 200 320"
   version="1.1"
   id="svg5"
   inkscape:version="1.2.2 (b0a8486541, 2022-12-01)"
   sodipodi:docname="Wire tiles 2.svg"
   inkscape:export-filename="Wire tiles 2.png"
   inkscape:export-xdpi="114.3"
   inkscape:export-ydpi="114.3"
   xmlns:inkscape="http://www.inkscape.org/namespaces/inkscape"
   xmlns:sodipodi="http://sodipodi.sourceforge.net/DTD/sodipodi-0.dtd"
   xmlns="http://www.w3.org/2000/svg"
   xmlns:svg="http://www.w3.org/2000/svg">
  <sodipodi:namedview
     id="namedview7"
     pagecolor="#ffffff"
     bordercolor="#000000"
     borderopacity="0.25"
     inkscape:showpageshadow="2"
     inkscape:pageopacity="0.0"
     inkscape:pagecheckerboard="0"
     inkscape:deskcolor="#d1d1d1"
     inkscape:document-units="mm"
     showgrid="false"
     showguides="true"
     inkscape:zoom="0.60086578"
     inkscape:cx="690.67005"
     inkscape:cy="514.25794"
     inkscape:window-width="1920"
     inkscape:window-height="1007"
     inkscape:window-x="0"
     inkscape:window-y="0"
     inkscape:window-maximized="1"
     inkscape:current-layer="layer16">
    <sodipodi:guide
       position="19.999999,319.99999"
       orientation="-1,0"
       id="guide16"
       inkscape:locked="false"
       inkscape:label=""
       inkscape:color="rgb(165,29,45)" />
    <sodipodi:guide
       position="0,299.99999"
       orientation="0,1"
       id="guide68"
       inkscape:locked="false"
       inkscape:label=""
       inkscape:color="rgb(165,29,45)" />
    <sodipodi:guide
       position="0,309.99999"
       orientation="0,1"
       id="guide70"
       inkscape:locked="false"
       inkscape:label=""
       inkscape:color="rgb(0,134,229)" />
    <sodipodi:guide
       position="0,279.99999"
       orientation="0,1"
       id="guide72"
       inkscape:locked="false"
       inkscape:label=""
       inkscape:color="rgb(165,29,45)" />
    <sodipodi:guide
       position="0,259.99999"
       orientation="0,1"
       id="guide74"
       inkscape:locked="false"
       inkscape:label=""
       inkscape:color="rgb(165,29,45)" />
    <sodipodi:guide
       position="0,240"
       orientation="0,1"
       id="guide76"
       inkscape:locked="false"
       inkscape:label=""
       inkscape:color="rgb(165,29,45)" />
    <sodipodi:guide
       position="9.941419,215.14861"
       orientation="-1,0"
       id="guide78"
       inkscape:locked="false"
       inkscape:label=""
       inkscape:color="rgb(0,134,229)" />
    <sodipodi:guide
       position="0,270"
       orientation="0,1"
       id="guide80"
       inkscape:locked="false"
       inkscape:label=""
       inkscape:color="rgb(0,134,229)" />
    <sodipodi:guide
       position="39.999999,319.99999"
       orientation="-1,0"
       id="guide296"
       inkscape:locked="false"
       inkscape:label=""
       inkscape:color="rgb(165,29,45)" />
    <sodipodi:guide
       position="59.999999,319.99999"
       orientation="-1,0"
       id="guide300"
       inkscape:locked="false"
       inkscape:label=""
       inkscape:color="rgb(165,29,45)" />
    <sodipodi:guide
       position="79.999999,319.99999"
       orientation="-1,0"
       id="guide304"
       inkscape:locked="false"
       inkscape:label=""
       inkscape:color="rgb(165,29,45)" />
    <sodipodi:guide
       position="29.999999,319.99999"
       orientation="-1,0"
       id="guide306"
       inkscape:locked="false"
       inkscape:label=""
       inkscape:color="rgb(0,134,229)" />
    <sodipodi:guide
       position="69.999999,319.99999"
       orientation="-1,0"
       id="guide312"
       inkscape:locked="false"
       inkscape:label=""
       inkscape:color="rgb(0,134,229)" />
    <sodipodi:guide
       position="0,249.99999"
       orientation="0,1"
       id="guide475"
       inkscape:locked="false"
       inkscape:label=""
       inkscape:color="rgb(0,134,229)" />
    <sodipodi:guide
       position="50,319.99999"
       orientation="-1,0"
       id="guide2783"
       inkscape:locked="false"
       inkscape:label=""
       inkscape:color="rgb(0,134,229)" />
    <sodipodi:guide
       position="0,290"
       orientation="0,1"
       id="guide2785"
       inkscape:locked="false"
       inkscape:label=""
       inkscape:color="rgb(0,134,229)" />
    <sodipodi:guide
       position="0,220"
       orientation="0,1"
       id="guide6767"
       inkscape:locked="false"
       inkscape:label=""
       inkscape:color="rgb(165,29,45)" />
    <sodipodi:guide
       position="0,230"
       orientation="0,1"
       id="guide7495"
       inkscape:locked="false"
       inkscape:label=""
       inkscape:color="rgb(0,134,229)" />
    <sodipodi:guide
       position="0,200"
       orientation="0,1"
       id="guide9006"
       inkscape:locked="false"
       inkscape:label=""
       inkscape:color="rgb(165,29,45)" />
    <sodipodi:guide
       position="0,210"
       orientation="0,1"
       id="guide9734"
       inkscape:locked="false"
       inkscape:label=""
       inkscape:color="rgb(0,134,229)" />
    <sodipodi:guide
       position="0,180"
       orientation="0,1"
       id="guide12006"
       inkscape:locked="false"
       inkscape:label=""
       inkscape:color="rgb(165,29,45)" />
    <sodipodi:guide
       position="0,160"
       orientation="0,1"
       id="guide12008"
       inkscape:locked="false"
       inkscape:label=""
       inkscape:color="rgb(165,29,45)" />
    <sodipodi:guide
       position="0,140"
       orientation="0,1"
       id="guide12010"
       inkscape:locked="false"
       inkscape:label=""
       inkscape:color="rgb(165,29,45)" />
    <sodipodi:guide
       position="0,120"
       orientation="0,1"
       id="guide12012"
       inkscape:locked="false"
       inkscape:label=""
       inkscape:color="rgb(165,29,45)" />
    <sodipodi:guide
       position="0,99.999998"
       orientation="0,1"
       id="guide12014"
       inkscape:locked="false"
       inkscape:label=""
       inkscape:color="rgb(165,29,45)" />
    <sodipodi:guide
       position="0,79.999999"
       orientation="0,1"
       id="guide12016"
       inkscape:locked="false"
       inkscape:label=""
       inkscape:color="rgb(165,29,45)" />
    <sodipodi:guide
       position="0,59.999999"
       orientation="0,1"
       id="guide12018"
       inkscape:locked="false"
       inkscape:label=""
       inkscape:color="rgb(165,29,45)" />
    <sodipodi:guide
       position="0,39.999999"
       orientation="0,1"
       id="guide12020"
       inkscape:locked="false"
       inkscape:label=""
       inkscape:color="rgb(165,29,45)" />
    <sodipodi:guide
       position="0,20"
       orientation="0,1"
       id="guide12022"
       inkscape:locked="false"
       inkscape:label=""
       inkscape:color="rgb(165,29,45)" />
    <sodipodi:guide
       position="0,190"
       orientation="0,1"
       id="guide12036"
       inkscape:locked="false"
       inkscape:label=""
       inkscape:color="rgb(0,134,229)" />
    <sodipodi:guide
       position="0,150"
       orientation="0,1"
       id="guide12062"
       inkscape:locked="false"
       inkscape:label=""
       inkscape:color="rgb(0,134,229)" />
    <sodipodi:guide
       position="0,130"
       orientation="0,1"
       id="guide12076"
       inkscape:locked="false"
       inkscape:label=""
       inkscape:color="rgb(0,134,229)" />
    <sodipodi:guide
       position="0,120"
       orientation="0,1"
       id="guide12154"
       inkscape:locked="false"
       inkscape:label=""
       inkscape:color="rgb(0,134,229)" />
    <sodipodi:guide
       position="0,110"
       orientation="0,1"
       id="guide12171"
       inkscape:locked="false"
       inkscape:label=""
       inkscape:color="rgb(0,134,229)" />
    <sodipodi:guide
       position="0,89.980398"
       orientation="0,1"
       id="guide12269"
       inkscape:locked="false"
       inkscape:label=""
       inkscape:color="rgb(0,134,229)" />
    <sodipodi:guide
       position="0,69.999999"
       orientation="0,1"
       id="guide12298"
       inkscape:locked="false"
       inkscape:label=""
       inkscape:color="rgb(0,134,229)" />
    <sodipodi:guide
       position="0,9.9999998"
       orientation="0,1"
       id="guide12300"
       inkscape:locked="false"
       inkscape:label=""
       inkscape:color="rgb(0,134,229)" />
    <sodipodi:guide
       position="0,49.999999"
       orientation="0,1"
       id="guide12464"
       inkscape:locked="false"
       inkscape:label=""
       inkscape:color="rgb(0,134,229)" />
    <sodipodi:guide
       position="0,29.999999"
       orientation="0,1"
       id="guide12466"
       inkscape:locked="false"
       inkscape:label=""
       inkscape:color="rgb(0,134,229)" />
    <sodipodi:guide
       position="0,170"
       orientation="0,1"
       id="guide12659"
       inkscape:locked="false"
       inkscape:label=""
       inkscape:color="rgb(0,134,229)" />
    <sodipodi:guide
       position="99.999998,319.99999"
       orientation="-1,0"
       id="guide13355"
       inkscape:locked="false"
       inkscape:label=""
       inkscape:color="rgb(165,29,45)" />
    <sodipodi:guide
       position="89.999998,319.99999"
       orientation="-1,0"
       id="guide13357"
       inkscape:locked="false"
       inkscape:label=""
       inkscape:color="rgb(0,134,229)" />
    <sodipodi:guide
       position="120,319.99999"
       orientation="-1,0"
       id="guide13566"
       inkscape:locked="false"
       inkscape:label=""
       inkscape:color="rgb(165,29,45)" />
    <sodipodi:guide
       position="110,319.99999"
       orientation="-1,0"
       id="guide13689"
       inkscape:locked="false"
       inkscape:label=""
       inkscape:color="rgb(0,134,229)" />
    <sodipodi:guide
       position="140,319.99999"
       orientation="-1,0"
       id="guide15785"
       inkscape:locked="false"
       inkscape:label=""
       inkscape:color="rgb(165,29,45)" />
    <sodipodi:guide
       position="130,319.99999"
       orientation="-1,0"
       id="guide15787"
       inkscape:locked="false"
       inkscape:label=""
       inkscape:color="rgb(0,134,229)" />
    <sodipodi:guide
       position="160,319.99999"
       orientation="-1,0"
       id="guide16940"
       inkscape:locked="false"
       inkscape:label=""
       inkscape:color="rgb(165,29,45)" />
    <sodipodi:guide
       position="150,319.99999"
       orientation="-1,0"
       id="guide16942"
       inkscape:locked="false"
       inkscape:label=""
       inkscape:color="rgb(0,134,229)" />
    <sodipodi:guide
       position="30.1625,334.81666"
       orientation="1,0"
       id="guide17356"
       inkscape:locked="false" />
    <sodipodi:guide
       position="180,319.99999"
       orientation="-1,0"
       id="guide17358"
       inkscape:locked="false"
       inkscape:label=""
       inkscape:color="rgb(165,29,45)" />
    <sodipodi:guide
       position="170,319.99999"
       orientation="-1,0"
       id="guide17360"
       inkscape:locked="false"
       inkscape:label=""
       inkscape:color="rgb(0,134,229)" />
  </sodipodi:namedview>
  <defs
     id="defs2">
    <marker
       style="overflow:visible"
       id="TriangleStart"
       refX="0"
       refY="0"
       orient="auto-start-reverse"
       inkscape:stockid="TriangleStart"
       markerWidth="3.460865"
       markerHeight="4.0009999"
       viewBox="0 0 5.3244081 6.1553851"
       inkscape:isstock="true"
       inkscape:collect="always"
       preserveAspectRatio="xMidYMid">
      <path
         transform="scale(0.5)"
         style="fill:context-stroke;fill-rule:evenodd;stroke:context-stroke;stroke-width:1pt"
         d="M 5.77,0 -2.88,5 V -5 Z"
         id="path135" />
    </marker>
    <marker
       style="overflow:visible"
       id="TriangleStart-3"
       refX="0"
       refY="0"
       orient="auto-start-reverse"
       inkscape:stockid="TriangleStart"
       markerWidth="3.460865"
       markerHeight="4.0009999"
       viewBox="0 0 5.3244081 6.1553851"
       inkscape:isstock="true"
       inkscape:collect="always"
       preserveAspectRatio="xMidYMid">
      <path
         transform="scale(0.5)"
         style="fill:context-stroke;fill-rule:evenodd;stroke:context-stroke;stroke-width:1pt"
         d="M 5.77,0 -2.88,5 V -5 Z"
         id="path135-5" />
    </marker>
  </defs>
  <rect
     style="fill:#ececec;stroke:none;stroke-width:2.70254;stroke-dasharray:none"
     id="rect2757"
     width="200"
     height="320"
     x="0"
     y="-2.7755576e-17"
     inkscape:label="Background"
     sodipodi:insensitive="true" />
  <g
     inkscape:groupmode="layer"
     id="layer3"
     inkscape:label="Layer 1">
    <path
       id="path3678"
       style="fill:#ececec;stroke:#000000;stroke-width:1;stroke-dasharray:none"
       d="m 8,34 h 4 M 7,32 h 6 M 5,30 H 15 M 9.9881535,20 v 10" />
  </g>
  <g
     inkscape:groupmode="layer"
     id="layer4"
     inkscape:label="Layer 2">
    <path
       style="fill:#ececec;stroke:#000000;stroke-width:1;stroke-dasharray:none"
       d="M 40,50 H 30 v -9.5 m -5.648055,0.670034 5.659931,5.659932 5.636179,-5.636179"
       id="path5891"
       sodipodi:nodetypes="cccccc" />
    <path
       id="path5858"
       style="fill:none;stroke:#000000;stroke-width:1;stroke-dasharray:none"
       d="M 19.999813,50.000049 H 9.9999064 v 2.999817 m -4.9996948,0.166398 h 9.9999064 z m 1.9998779,1.999878 H 13.00024 Z m 0.999939,1.999878 h 3.9997555 z"
       sodipodi:nodetypes="cccccccccccc" />
  </g>
  <g
     inkscape:groupmode="layer"
     id="layer5"
     inkscape:label="Layer 3">
    <path
       d="M 20,70 H 10 V 60"
       style="fill:none;stroke:#000000;stroke-width:1;stroke-dasharray:none"
       id="path6740"
       sodipodi:nodetypes="ccc" />
  </g>
  <g
     inkscape:groupmode="layer"
     id="layer6"
     inkscape:label="Layer 4">
    <path
       style="fill:#ececec;stroke:#000000;stroke-width:1;stroke-dasharray:none"
       d="m 10,100 0,-18 m -6,2.5 6,5.5 6,-5.5"
       id="path6765"
       sodipodi:nodetypes="ccccc" />
  </g>
  <g
     inkscape:groupmode="layer"
     id="layer7"
     inkscape:label="Layer 5">
    <path
       style="fill:none;stroke:#000000;stroke-width:1;stroke-dasharray:none"
       d="m 10,100 v 20"
       id="path10623"
       sodipodi:nodetypes="cc" />
    <path
       id="path10735"
       style="fill:#ffffff;stroke:#000000;stroke-width:0.982592"
       d="m 27,103 h 6 v 14 h -6 z m 3,14 v 3 m -3,-17 h 6 v 14 h -6 z m 3,-3 v 3" />
    <g
       id="g11996">
      <path
         id="path10780"
         style="fill:#ffffff;stroke:#000000;stroke-width:0.982592"
         d="m 46.991296,103 h 6 v 14 h -6 z m 3,14 v 3 m -3,-17 h 6 v 14 h -6 z m 3,-3 v 3" />
      <path
         style="fill:#ffffff;stroke:#000000;stroke-width:1;stroke-dasharray:none;marker-end:url(#TriangleStart)"
         d="M 44,117 56,102.5"
         id="path10782"
         sodipodi:nodetypes="cc" />
    </g>
    <path
       id="path13406"
       style="fill:none;stroke:#000000;stroke-width:1;stroke-dasharray:none"
       d="m 70,100 v 9 m -5,2.5 h 10 z m 0,-3 h 9.999906 z m 5,2.5 v 9" />
    <g
       id="g13416">
      <path
         id="path13409"
         style="fill:none;stroke:#000000;stroke-width:1;stroke-dasharray:none"
         d="m 90,100 v 9 m -5,2.5 h 10 z m 0,-3 h 9.999906 z m 5,2.5 v 9" />
      <path
         style="fill:#ffffff;stroke:#000000;stroke-width:1;stroke-dasharray:none;marker-end:url(#TriangleStart)"
         d="m 84.000197,117 12,-14.5"
         id="path13411"
         sodipodi:nodetypes="cc" />
    </g>
    <path
       id="path13700"
       style="fill:#ffffff;stroke:#000000;stroke-width:1;stroke-dasharray:none"
       d="m 110,100 v 6 m 5,0 h -10 m 5,0 -4.313,7.5 h 8.93064 z m 0,7.5 v 6.5"
       sodipodi:nodetypes="cccccccccc" />
    <path
       id="path16543"
       style="fill:none;stroke:#000000;stroke-width:1;stroke-dasharray:none"
       d="m 130,115.5 v 4.5 m 0,-20 v 4.5 m 0,-0.5 c 3.49571,0 3.50066,3 0,3 3.49613,0 3.50414,3 0,3 3.49982,0 3.49583,3 0,3 3.50259,0 3.50183,3 0,3" />
    <g
       id="g17149">
      <path
         id="path17134"
         style="fill:none;stroke:#000000;stroke-width:1;stroke-dasharray:none"
         d="m 150,100 v 9 m -5,2 h 10 z m 2.5,-2 h 5 z m 2.5,2 v 9"
         sodipodi:nodetypes="cccccccccc" />
      <path
         id="path17140"
         style="fill:none;stroke:#000000;stroke-width:0.7;stroke-dasharray:none"
         d="m 144.5,117 v -4 z m -2,-2 h 4 z m 0,-10.5 h 4 z" />
    </g>
    <g
       id="g17428">
      <path
         id="path17422"
         style="fill:none;stroke:#000000;stroke-width:1;stroke-dasharray:none"
         d="m 175,106.5 -5,7.5 m 0,0 v 6 m 0,-20 v 6"
         sodipodi:nodetypes="cccccc" />
      <circle
         style="fill:#ffffff;stroke:#000000;stroke-width:0.563566;stroke-linecap:butt;stroke-linejoin:bevel;stroke-dasharray:none"
         id="path17416"
         cx="170"
         cy="106"
         r="1.218217" />
      <circle
         style="fill:#ffffff;stroke:#000000;stroke-width:0.563566;stroke-linecap:butt;stroke-linejoin:bevel;stroke-dasharray:none"
         id="circle17418"
         cx="170"
         cy="113.9"
         r="1.218217" />
    </g>
  </g>
  <g
     inkscape:groupmode="layer"
     id="layer8"
     inkscape:label="Layer 6">
    <path
       d="M 10,140 V 130 H 20"
       style="fill:none;stroke:#000000;stroke-width:1;stroke-dasharray:none"
       id="path12073"
       sodipodi:nodetypes="ccc" />
  </g>
  <g
     inkscape:groupmode="layer"
     id="layer9"
     inkscape:label="Layer 7">
    <g
       id="g13200">
      <path
         id="path12454"
         style="fill:none;stroke:#000000;stroke-width:1;stroke-dasharray:none"
         d="M 10,150 H 20 M 10,140 v 20" />
      <circle
         style="fill:#000000;stroke:none;stroke-width:0.61038;stroke-dasharray:none"
         id="path12362-5"
         cx="10"
         cy="150"
         r="1.5" />
    </g>
    <g
       id="g13204">
      <path
         id="path13113"
         style="fill:#ffffff;stroke:#000000;stroke-width:0.982592"
         d="m 26.991296,143 h 6 v 14 h -6 z m 3,14 v 3 m -3,-17 h 6 v 14 h -6 z m 3,-3 v 3" />
      <path
         style="fill:#ffffff;stroke:#000000;stroke-width:1;stroke-dasharray:none;marker-end:url(#TriangleStart-3)"
         d="M 40,150 H 35.811438"
         id="path10782-6"
         sodipodi:nodetypes="cc" />
    </g>
    <g
       id="g14364">
      <path
         style="fill:none;stroke:#000000;stroke-width:1;stroke-dasharray:none;marker-start:url(#TriangleStart)"
         d="M 52.957405,151.8338 50,155 v 5"
         id="path10782-6-1"
         sodipodi:nodetypes="ccc" />
      <path
         id="path14085"
         style="fill:none;stroke:#000000;stroke-width:1;stroke-dasharray:none"
         d="m 60,150 h -5 m 0,-5 v 10 m -5,-15 v 5 l 5,5" />
    </g>
    <g
       id="g14370"
       transform="translate(20)">
      <path
         style="fill:none;stroke:#000000;stroke-width:1;stroke-dasharray:none;marker-mid:url(#TriangleStart-3)"
         d="m 54.503231,150.06198 -3.29412,3.73575 -1.342933,1.52297"
         id="path14366"
         sodipodi:nodetypes="ccc" />
      <path
         id="path14368"
         style="fill:none;stroke:#000000;stroke-width:1;stroke-dasharray:none"
         d="m 60,150 h -5 m 0,-5 v 10 m -5,-15 v 5 l 5,5" />
      <path
         style="fill:none;stroke:#000000;stroke-width:1;stroke-dasharray:none"
         d="m 70,155 v 5"
         id="path14416"
         sodipodi:nodetypes="cc"
         transform="translate(-20)" />
    </g>
    <g
       id="g15462"
       transform="translate(60.008846)">
      <path
         style="fill:none;stroke:#000000;stroke-width:1;stroke-dasharray:none;marker-mid:url(#TriangleStart-3)"
         d="m 54.991154,152.5 h -2.4 -2.6"
         id="path15456"
         sodipodi:nodetypes="ccc" />
      <path
         id="path15458"
         style="fill:none;stroke:#000000;stroke-width:1;stroke-dasharray:none"
         d="m 60,150 h -5 m 0,-5 v 10 m -5.008846,-15 v 7.5 h 5"
         sodipodi:nodetypes="ccccccc" />
      <path
         style="fill:none;stroke:#000000;stroke-width:1;stroke-dasharray:none"
         d="m 69.991154,152 v 8"
         id="path15460"
         sodipodi:nodetypes="cc"
         transform="translate(-20)" />
    </g>
    <g
       id="g15540"
       transform="translate(40)">
      <path
         style="fill:none;stroke:#000000;stroke-width:1;stroke-dasharray:none;marker-start:url(#TriangleStart)"
         d="m 52.5,152.5 -2.5,0 v 7.5"
         id="path15536"
         sodipodi:nodetypes="ccc" />
      <path
         id="path15538"
         style="fill:none;stroke:#000000;stroke-width:1;stroke-dasharray:none"
         d="m 60,150 h -5 m 0,-5 v 10 m -5,-15 v 7.5 l 5,0"
         sodipodi:nodetypes="ccccccc" />
    </g>
    <path
       id="path16552"
       style="fill:none;stroke:#000000;stroke-width:1;stroke-linecap:butt;stroke-linejoin:bevel;stroke-dasharray:none"
       d="m 130,150 h 10 m -10,5.50151 v 4.50044 m 0,-20.0019 v 4.50043 m 0,-0.50005 c -3.49604,0 -3.501,3.00029 0,3.00029 -3.49646,0 -3.50448,3.00028 0,3.00028 -3.50016,0 -3.49616,3.00028 0,3.00028 -3.50293,0 -3.50217,3.00028 0,3.00028" />
  </g>
  <g
     inkscape:groupmode="layer"
     id="layer10"
     inkscape:label="Layer 8">
    <path
       style="fill:#ececec;stroke:#000000;stroke-width:1;stroke-dasharray:none"
       d="m 20,170 h 10.001608 v -9.5 m -5.648055,0.67003 5.659931,5.65993 5.636179,-5.63618"
       id="path12056"
       sodipodi:nodetypes="cccccc" />
    <path
       id="path12058"
       style="fill:none;stroke:#000000;stroke-width:1.00001;stroke-dasharray:none"
       d="m 0,170 9.9998278,1e-5 v 2.9998 M 5,173.16621 h 10.000172 z m 1.9999311,1.99988 h 6.0003099 z m 0.9999656,1.99987 h 3.9998613 z"
       sodipodi:nodetypes="cccccccccccc" />
  </g>
  <g
     inkscape:groupmode="layer"
     id="layer11"
     inkscape:label="Layer 9">
    <path
       d="m 10,180 v 10 H 0"
       style="fill:none;stroke:#000000;stroke-width:1;stroke-dasharray:none"
       id="path12266"
       sodipodi:nodetypes="ccc" />
  </g>
  <g
     inkscape:groupmode="layer"
     id="layer12"
     inkscape:label="Layer 10">
    <path
       style="fill:none;stroke:#000000;stroke-width:1;stroke-dasharray:none"
       d="M 20,210 H 0"
       id="path12156"
       sodipodi:nodetypes="cc" />
    <path
       id="path12158"
       style="fill:#ffffff;stroke:#000000;stroke-width:0.982592"
       d="m 37,206.9913 v 6 H 23 v -6 z m -14,3 h -3 m 17,-3 v 6 H 23 v -6 z m 3,3 h -3" />
    <g
       id="g12164"
       transform="rotate(90,0.01185341,159.98816)">
      <path
         id="path12160"
         style="fill:#ffffff;stroke:#000000;stroke-width:0.982592"
         d="m 46.991296,103 h 6 v 14 h -6 z m 3,14 v 3 m -3,-17 h 6 v 14 h -6 z m 3,-3 v 3" />
      <path
         style="fill:#ffffff;stroke:#000000;stroke-width:1;stroke-dasharray:none;marker-end:url(#TriangleStart)"
         d="m 55.525849,117.19761 -12,-14"
         id="path12162"
         sodipodi:nodetypes="cc" />
    </g>
    <path
       id="path13418"
       style="fill:none;stroke:#000000;stroke-width:1;stroke-dasharray:none"
       d="m 80,210 h -9 m -2.5,-5 v 10 z m 3,0 v 10 z m -2.5,5 h -9"
       sodipodi:nodetypes="cccccccccc" />
    <g
       id="g13424"
       transform="matrix(0,-1,-1,0,200.00019,300.03611)">
      <path
         id="path13420"
         style="fill:none;stroke:#000000;stroke-width:1;stroke-dasharray:none"
         d="m 90.03611,100 v 9 m -5,2.5 h 10 z m 0,-3 h 10 z m 5,2.5 v 9"
         sodipodi:nodetypes="cccccccccc" />
      <path
         style="fill:#ffffff;stroke:#000000;stroke-width:1;stroke-dasharray:none;marker-end:url(#TriangleStart)"
         d="m 84.000197,117 12,-14.49981"
         id="path13422"
         sodipodi:nodetypes="cc" />
    </g>
    <path
       id="path13703"
       style="fill:#ffffff;stroke:#000000;stroke-width:1;stroke-dasharray:none"
       d="m 120,210 h -6 m 0,5 v -10 m 0,5 -7.5,-4.09146 0,8.08985 z m -7.5,0 H 100"
       sodipodi:nodetypes="cccccccccc" />
    <g
       id="g15548"
       transform="rotate(-90,120.00222,159.99779)">
      <path
         style="fill:none;stroke:#000000;stroke-width:1;stroke-dasharray:none;marker-mid:url(#TriangleStart-3)"
         d="m 54.991154,152.5 h -2.4 -2.6"
         id="path15542"
         sodipodi:nodetypes="ccc" />
      <path
         id="path15544"
         style="fill:none;stroke:#000000;stroke-width:1;stroke-dasharray:none"
         d="m 60,150 h -5 m 0,-5 v 10 m -5.008846,-15 v 7.5 h 5"
         sodipodi:nodetypes="ccccccc" />
      <path
         style="fill:none;stroke:#000000;stroke-width:1;stroke-dasharray:none"
         d="m 69.991154,152 v 8"
         id="path15546"
         sodipodi:nodetypes="cc"
         transform="translate(-20)" />
    </g>
    <g
       id="g15554"
       transform="rotate(-90,110.00222,170.00221)">
      <path
         style="fill:none;stroke:#000000;stroke-width:1;stroke-dasharray:none;marker-start:url(#TriangleStart)"
         d="M 52.5,152.5 H 50 v 7.5"
         id="path15550"
         sodipodi:nodetypes="ccc" />
      <path
         id="path15552"
         style="fill:none;stroke:#000000;stroke-width:1;stroke-dasharray:none"
         d="m 60,150 h -5 m 0,-5 v 10 m -5,-15 v 7.5 h 5"
         sodipodi:nodetypes="ccccccc" />
    </g>
    <path
       id="path16546"
       style="fill:none;stroke:#000000;stroke-width:1;stroke-dasharray:none"
       d="m 135.5,210 h 4.5 m -20,0 h 4.5 m -0.5,0 c 0,-3.49571 3,-3.50066 3,0 0,-3.49613 3,-3.50414 3,0 0,-3.49982 3,-3.49583 3,0 0,-3.50259 3,-3.50183 3,0"
       sodipodi:nodetypes="ccccccccc" />
    <g
       id="g17155"
       transform="rotate(90,100,160)">
      <path
         id="path17151"
         style="fill:none;stroke:#000000;stroke-width:1;stroke-dasharray:none"
         d="m 150,100 v 9 m -5,2 h 10 z m 2.5,-2 h 5 z m 2.5,2 v 9"
         sodipodi:nodetypes="cccccccccc" />
      <path
         id="path17153"
         style="fill:none;stroke:#000000;stroke-width:0.7;stroke-dasharray:none"
         d="m 144.5,117 v -4 z m -2,-2 h 4 z m 2,-8 v -3.44104 z"
         sodipodi:nodetypes="ccccccccc" />
    </g>
    <g
       id="g17436"
       transform="matrix(0,-0.99999941,-1.000011,0,280.0731,379.9239)">
      <path
         id="path17430"
         style="fill:none;stroke:#000000;stroke-width:1;stroke-dasharray:none"
         d="m 174.924,107.07192 -5,6.79383 m 0,-0.2939 v 6.49983 m 0,-19.99978 v 5.49994"
         sodipodi:nodetypes="cccccc" />
      <circle
         style="fill:#ffffff;stroke:#000000;stroke-width:0.563566;stroke-linecap:butt;stroke-linejoin:bevel;stroke-dasharray:none"
         id="circle17432"
         cx="169.924"
         cy="106.07191"
         r="1.218217" />
      <circle
         style="fill:#ffffff;stroke:#000000;stroke-width:0.563566;stroke-linecap:butt;stroke-linejoin:bevel;stroke-dasharray:none"
         id="circle17434"
         cx="169.92397"
         cy="114.07183"
         r="1.218217" />
    </g>
  </g>
  <g
     inkscape:groupmode="layer"
     id="layer13"
     inkscape:label="Layer 11">
    <g
       id="g12909">
      <path
         id="path12461"
         style="fill:none;stroke:#000000;stroke-width:1;stroke-dasharray:none"
         d="M 10,230 V 220 M 0,230 h 20" />
      <circle
         style="fill:#000000;stroke:none;stroke-width:0.61038;stroke-dasharray:none"
         id="path12362-7"
         cx="10"
         cy="230"
         r="1.5" />
    </g>
    <g
       id="g13222"
       transform="rotate(-90,70,190)">
      <path
         id="path13218"
         style="fill:#ffffff;stroke:#000000;stroke-width:0.982592"
         d="m 26.991296,143 h 6 v 14 h -6 z m 3,14 v 3 m -3,-17 h 6 v 14 h -6 z m 3,-3 v 3" />
      <path
         style="fill:#ffffff;stroke:#000000;stroke-width:1;stroke-dasharray:none;marker-end:url(#TriangleStart-3)"
         d="M 40,150 H 35.811438"
         id="path13220"
         sodipodi:nodetypes="cc" />
    </g>
    <g
       id="g15245"
       transform="rotate(-90,90.000002,190)">
      <path
         style="fill:none;stroke:#000000;stroke-width:1;stroke-dasharray:none;marker-start:url(#TriangleStart)"
         d="M 52.957405,151.8338 50,155 v 5"
         id="path15241"
         sodipodi:nodetypes="ccc" />
      <path
         id="path15243"
         style="fill:none;stroke:#000000;stroke-width:1;stroke-dasharray:none"
         d="m 60,150 h -5 m 0,-5 v 10 m -5,-15 v 5 l 5,5" />
    </g>
    <g
       id="g15256"
       transform="rotate(-90,99.999998,180)">
      <path
         style="fill:none;stroke:#000000;stroke-width:1;stroke-dasharray:none;marker-mid:url(#TriangleStart-3)"
         d="m 54.503231,150.06198 -3.29412,3.73575 -1.342933,1.52297"
         id="path15250"
         sodipodi:nodetypes="ccc" />
      <path
         id="path15252"
         style="fill:none;stroke:#000000;stroke-width:1;stroke-dasharray:none"
         d="m 60,150 h -5 m 0,-5 v 10 m -5,-15 v 5 l 5,5" />
      <path
         style="fill:none;stroke:#000000;stroke-width:1;stroke-dasharray:none"
         d="m 70,155 v 5"
         id="path15254"
         sodipodi:nodetypes="cc"
         transform="translate(-20)" />
    </g>
    <path
       id="path16555"
       style="fill:none;stroke:#000000;stroke-width:1;stroke-linecap:butt;stroke-linejoin:bevel;stroke-dasharray:none"
       d="m 129.99995,230 v -10 m 5.50151,10 h 4.50044 M 120,230 h 4.50043 m -0.50005,0 c 0,3.49604 3.00029,3.501 3.00029,0 0,3.49646 3.00028,3.50448 3.00028,0 0,3.50016 3.00028,3.49616 3.00028,0 0,3.50293 3.00028,3.50217 3.00028,0" />
  </g>
  <g
     inkscape:groupmode="layer"
     id="layer14"
     inkscape:label="Layer 12">
    <path
       d="m 0,250 h 10 v 10"
       style="fill:none;stroke:#000000;stroke-width:1;stroke-dasharray:none"
       id="path12033"
       sodipodi:nodetypes="ccc" />
  </g>
  <g
     inkscape:groupmode="layer"
     id="layer15"
     inkscape:label="Layer 13">
    <g
       id="g12891">
      <path
         id="path12468"
         style="fill:none;stroke:#000000;stroke-width:1;stroke-dasharray:none"
         d="M 9.9999999,270 H 0 m 9.9999999,10 v -20" />
      <circle
         style="fill:#000000;stroke:none;stroke-width:0.61038;stroke-dasharray:none"
         id="path12362-6"
         cx="10"
         cy="270"
         r="1.5" />
    </g>
    <g
       id="g13231"
       transform="rotate(180,30,210)">
      <path
         id="path13227"
         style="fill:#ffffff;stroke:#000000;stroke-width:0.982592"
         d="m 26.991296,143 h 6 v 14 h -6 z m 3,14 v 3 m -3,-17 h 6 v 14 h -6 z m 3,-3 v 3" />
      <path
         style="fill:#ffffff;stroke:#000000;stroke-width:1;stroke-dasharray:none;marker-end:url(#TriangleStart-3)"
         d="M 40,150 H 35.811438"
         id="path13229"
         sodipodi:nodetypes="cc" />
    </g>
    <g
       id="g15266"
       transform="matrix(-1,0,0,1,100,120)">
      <path
         style="fill:none;stroke:#000000;stroke-width:1;stroke-dasharray:none;marker-start:url(#TriangleStart)"
         d="M 52.957405,151.8338 50,155 v 5"
         id="path15262"
         sodipodi:nodetypes="ccc" />
      <path
         id="path15264"
         style="fill:none;stroke:#000000;stroke-width:1;stroke-dasharray:none"
         d="m 60,150 h -5 m 0,-5 v 10 m -5,-15 v 5 l 5,5" />
    </g>
    <g
       id="g15277"
       transform="matrix(-1,0,0,1,120,120)">
      <path
         style="fill:none;stroke:#000000;stroke-width:1;stroke-dasharray:none;marker-mid:url(#TriangleStart-3)"
         d="m 54.503231,150.06198 -3.29412,3.73575 -1.342933,1.52297"
         id="path15271"
         sodipodi:nodetypes="ccc" />
      <path
         id="path15273"
         style="fill:none;stroke:#000000;stroke-width:1;stroke-dasharray:none"
         d="m 60,150 h -5 m 0,-5 v 10 m -5,-15 v 5 l 5,5" />
      <path
         style="fill:none;stroke:#000000;stroke-width:1;stroke-dasharray:none"
         d="m 70,155 v 5"
         id="path15275"
         sodipodi:nodetypes="cc"
         transform="translate(-20)" />
    </g>
    <g
       id="g15569"
       transform="matrix(-1.0000052,0,0,-1,160.00041,420)">
      <path
         style="fill:none;stroke:#000000;stroke-width:1;stroke-dasharray:none;marker-mid:url(#TriangleStart-3)"
         d="m 54.991154,152.5 h -2.4 -2.6"
         id="path15563"
         sodipodi:nodetypes="ccc" />
      <path
         id="path15565"
         style="fill:none;stroke:#000000;stroke-width:1;stroke-dasharray:none"
         d="m 60,150 h -5 m 0,-5 v 10 m -5.008846,-15 v 7.5 h 5"
         sodipodi:nodetypes="ccccccc" />
      <path
         style="fill:none;stroke:#000000;stroke-width:1;stroke-dasharray:none"
         d="m 69.991154,152 v 8"
         id="path15567"
         sodipodi:nodetypes="cc"
         transform="translate(-20)" />
    </g>
    <g
       id="g15575"
       transform="matrix(-1.0000052,0,0,-1,140.00031,420)">
      <path
         style="fill:none;stroke:#000000;stroke-width:1;stroke-dasharray:none;marker-start:url(#TriangleStart)"
         d="M 52.5,152.5 H 50 v 7.5"
         id="path15571"
         sodipodi:nodetypes="ccc" />
      <path
         id="path15573"
         style="fill:none;stroke:#000000;stroke-width:1;stroke-dasharray:none"
         d="m 60,150 h -5 m 0,-5 v 10 m -5,-15 v 7.5 h 5"
         sodipodi:nodetypes="ccccccc" />
    </g>
    <path
       id="path16558"
       style="fill:none;stroke:#000000;stroke-width:1;stroke-linecap:butt;stroke-linejoin:bevel;stroke-dasharray:none"
       d="M 130,270.00195 120,270 m 10,-5.49956 V 260 m 0,20 v -4.5 m 0,0.50069 c 3.49604,0 3.501,-3.00138 0,-3.00138 3.49646,0 3.50448,-2.99945 0,-2.99945 3.50016,0 3.49616,-2.99986 0,-2.99986 3.50293,0 3.50217,-2.99961 0,-2.99961"
       sodipodi:nodetypes="ccccccccccc" />
  </g>
  <g
     inkscape:groupmode="layer"
     id="layer16"
     inkscape:label="Layer 14">
    <g
       id="g12873">
      <path
         id="path12458"
         style="fill:none;stroke:#000000;stroke-width:1;stroke-dasharray:none"
         d="m 10,290 v 10 M 20,290 H 0" />
      <path
         id="path12362-3"
         style="stroke-width:0.61038"
         d="M 11.5,290 A 1.5,1.5 0 0 1 10,291.5 1.5,1.5 0 0 1 8.5,290 1.5,1.5 0 0 1 10,288.5 1.5,1.5 0 0 1 11.5,290 Z" />
    </g>
    <g
       id="g13240"
       transform="rotate(90,-40,220)">
      <path
         id="path13236"
         style="fill:#ffffff;stroke:#000000;stroke-width:0.982592"
         d="m 26.991296,143 h 6 v 14 h -6 z m 3,14 v 3 m -3,-17 h 6 v 14 h -6 z m 3,-3 v 3" />
      <path
         style="fill:#ffffff;stroke:#000000;stroke-width:1;stroke-dasharray:none;marker-end:url(#TriangleStart-3)"
         d="M 40,150 H 35.811438"
         id="path13238"
         sodipodi:nodetypes="cc" />
    </g>
    <g
       id="g15287"
       transform="matrix(0,1,1,0,-100,240)">
      <path
         style="fill:none;stroke:#000000;stroke-width:1;stroke-dasharray:none;marker-start:url(#TriangleStart)"
         d="M 52.957405,151.8338 50,155 v 5"
         id="path15283"
         sodipodi:nodetypes="ccc" />
      <path
         id="path15285"
         style="fill:none;stroke:#000000;stroke-width:1;stroke-dasharray:none"
         d="m 60,150 h -5 m 0,-5 v 10 m -5,-15 v 5 l 5,5" />
    </g>
    <g
       id="g15298"
       transform="matrix(0,1,1,0,-80,240.00885)">
      <path
         style="fill:none;stroke:#000000;stroke-width:1;stroke-dasharray:none;marker-mid:url(#TriangleStart-3)"
         d="m 54.503231,150.06198 -3.29412,3.73575 -1.342933,1.52297"
         id="path15292"
         sodipodi:nodetypes="ccc" />
      <path
         id="path15294"
         style="fill:none;stroke:#000000;stroke-width:1;stroke-dasharray:none"
         d="m 60,150 h -5 m 0,-5 v 10 m -5,-15 v 5 l 5,5" />
      <path
         style="fill:none;stroke:#000000;stroke-width:1;stroke-dasharray:none"
         d="m 70,155 v 5"
         id="path15296"
         sodipodi:nodetypes="cc"
         transform="translate(-20)" />
    </g>
    <g
       id="g15590"
       transform="matrix(0,1.0000049,-1.0000117,0,260.00664,240.00861)">
      <path
         style="fill:none;stroke:#000000;stroke-width:1;stroke-dasharray:none;marker-mid:url(#TriangleStart-3)"
         d="m 54.991154,152.5 h -2.4 -2.6"
         id="path15584"
         sodipodi:nodetypes="ccc" />
      <path
         id="path15586"
         style="fill:none;stroke:#000000;stroke-width:1;stroke-dasharray:none"
         d="m 60,150 h -5 m 0,-5 v 10 m -5.008846,-15 v 7.5 h 5"
         sodipodi:nodetypes="ccccccc" />
      <path
         style="fill:none;stroke:#000000;stroke-width:1;stroke-dasharray:none"
         d="m 69.991154,152 v 8"
         id="path15588"
         sodipodi:nodetypes="cc"
         transform="translate(-20)" />
    </g>
    <g
       id="g15596"
       transform="matrix(0,1.0000049,-1.0000117,0,240.00188,240.00418)">
      <path
         style="fill:none;stroke:#000000;stroke-width:1;stroke-dasharray:none;marker-start:url(#TriangleStart)"
         d="M 52.5,152.5 H 50 v 7.5"
         id="path15592"
         sodipodi:nodetypes="ccc" />
      <path
         id="path15594"
         style="fill:none;stroke:#000000;stroke-width:1;stroke-dasharray:none"
         d="m 60,150 h -5 m 0,-5 v 10 m -5,-15 v 7.5 h 5"
         sodipodi:nodetypes="ccccccc" />
    </g>
    <path
       id="path16561"
       style="fill:none;stroke:#000000;stroke-width:1;stroke-linecap:butt;stroke-linejoin:bevel;stroke-dasharray:none"
       d="m 130,290 v 10 m -5.49951,-10 h -4.50044 M 140,290 h -4.5 m 0.5,0 c 0,-3.49604 -3,-3.501 -3,0 0,-3.49646 -2.999,-3.50448 -2.999,0 0,-3.50016 -3.00028,-3.49616 -3.00028,0 0,-3.50293 -3.00028,-3.50217 -3.00028,0"
       sodipodi:nodetypes="ccccccccccc" />
  </g>
  <g
     inkscape:groupmode="layer"
     id="layer17"
     inkscape:label="Layer 15">
    <path
       id="path12305"
       style="fill:none;stroke:#000000;stroke-width:1;stroke-dasharray:none"
       d="m 0,310 h 7.5 c 0,-3.00187 5,-3.01066 5,0 H 20 M 10,300 v 20"
       sodipodi:nodetypes="cccccc" />
    <path
       id="path12308"
       style="fill:none;stroke:#000000;stroke-width:1;stroke-dasharray:none"
       d="M 20,310 H 40 M 30,300 v 20" />
    <circle
       style="fill:#000000;stroke:none;stroke-width:0.61038;stroke-dasharray:none"
       id="path12362"
       cx="30"
       cy="310"
       r="1.5" />
  </g>
</svg>
